<?xml version="1.0" encoding="UTF-8" standalone="no"?>
<!-- Created with Inkscape (http://www.inkscape.org/) -->

<svg
   width="321.0072mm"
   height="87.294006mm"
   viewBox="0 0 321.0072 87.294006"
   version="1.1"
   id="svg1"
   xml:space="preserve"
   inkscape:export-filename="..\..\..\..\..\Downloads\doc-detective.svg"
   inkscape:export-xdpi="151.92181"
   inkscape:export-ydpi="151.92181"
   inkscape:version="1.3.2 (091e20e, 2023-11-25, custom)"
   sodipodi:docname="bitmap.svg"
   xmlns:inkscape="http://www.inkscape.org/namespaces/inkscape"
   xmlns:sodipodi="http://sodipodi.sourceforge.net/DTD/sodipodi-0.dtd"
   xmlns="http://www.w3.org/2000/svg"
   xmlns:svg="http://www.w3.org/2000/svg"><sodipodi:namedview
     id="namedview1"
     pagecolor="#ffffff"
     bordercolor="#999999"
     borderopacity="1"
     inkscape:showpageshadow="2"
     inkscape:pageopacity="0"
     inkscape:pagecheckerboard="0"
     inkscape:deskcolor="#d1d1d1"
     inkscape:document-units="mm"
     inkscape:zoom="2"
     inkscape:cx="572.75"
     inkscape:cy="95.75"
     inkscape:window-width="3840"
     inkscape:window-height="2036"
     inkscape:window-x="-12"
     inkscape:window-y="-12"
     inkscape:window-maximized="1"
     inkscape:current-layer="layer1" /><defs
     id="defs1" /><g
     inkscape:label="Layer 1"
     inkscape:groupmode="layer"
     id="layer1"
     transform="translate(-18.901928,-80.000005)"><text
       xml:space="preserve"
       style="font-size:51.6813px;line-height:0.8;font-family:'Courier New';-inkscape-font-specification:'Courier New';text-align:center;letter-spacing:-3.23008px;text-anchor:middle;fill:#ffffff;stroke-width:0.269173"
       x="90.701958"
       y="119.22406"
       id="text1"><tspan
         sodipodi:role="line"
         style="font-style:normal;font-variant:normal;font-weight:300;font-stretch:normal;line-height:0.8;font-family:'JetBrains Mono';-inkscape-font-specification:'JetBrains Mono Light';text-align:start;letter-spacing:-3.23008px;text-anchor:start;fill:#000000;stroke-width:0.269173"
         x="90.701958"
         y="119.22406"
         id="tspan2">Doc</tspan><tspan
         sodipodi:role="line"
         style="font-style:normal;font-variant:normal;font-weight:300;font-stretch:normal;line-height:0.8;font-family:'JetBrains Mono';-inkscape-font-specification:'JetBrains Mono Light';text-align:start;letter-spacing:-3.23008px;text-anchor:start;fill:#000000;stroke-width:0.269173"
         x="90.701958"
         y="160.97995"
         id="tspan3">Detective</tspan></text><g
       style="fill:#000000"
       id="g4"
       transform="matrix(0.1,0,0,0.1,3.4310962,168)"><path
         d="m 220,-80 c -16,0 -30,-6 -42,-18 -12,-12 -18,-26 -18,-42 v -680 c 0,-16 6,-30 18,-42 12,-12 26,-18 42,-18 h 361 l 219,219 v 521 c 0,16 -6,30 -18,42 -12,12 -26,18 -42,18 z m 350.99998,-573.99995 v -186 h -371 v 720 h 560 v -534 z m -371,-186 L 220,-634 199.99998,-839.99995 v 720 z"
         id="path1"
         sodipodi:nodetypes="ssssssccsssscccccccccccc" /></g><g
       style="fill:#000000"
       id="g5"
       transform="matrix(0.08538186,0,0,0.08538186,19.012685,177.62521)"><path
         d="M 796,-121 533,-384 c -20,17.33333 -43.32,30.83333 -69.96,40.5 -26.64,9.66667 -54.98667,14.5 -85.04,14.5 -72.10667,0 -133.13333,-25 -183.08,-75 C 144.97333,-454 120,-514.33333 120,-585 c 0,-70.66667 25,-131 75,-181 50,-50 110.5,-75 181.5,-75 71,0 131.33333,25 181,75 49.66667,50 74.5,110.38333 74.5,181.15 0,28.56667 -4.66667,56.18333 -14,82.85 -9.33333,26.66667 -23.33333,51.66667 -42,75 l 264,262 z M 377,-389 c 54.16667,0 100.21,-19.16667 138.13,-57.5 37.91333,-38.33333 56.8737,-84.5 56.8737,-138.5 0,-54 -18.96037,-100.16667 -56.8737,-138.5 C 477.21,-761.83333 431.16667,-781 377,-781 c -54.72,0 -101.23333,19.16667 -139.54,57.5 C 199.15333,-685.16667 180,-639 180,-585 c 0,54 19.15333,100.16667 57.46,138.5 38.30667,38.33333 84.82,57.5 139.54,57.5 z"
         id="path1-3"
         sodipodi:nodetypes="ccssssssssscccscscsssss" /></g></g></svg>
