<?xml version="1.0" encoding="UTF-8" standalone="no"?>
<!-- Created with Inkscape (http://www.inkscape.org/) -->

<svg
   width="210mm"
   height="297mm"
   viewBox="0 0 210 297"
   version="1.1"
   id="svg1"
   xml:space="preserve"
   inkscape:export-filename="bitmap.svg"
   inkscape:export-xdpi="151.92181"
   inkscape:export-ydpi="151.92181"
   inkscape:version="1.3.2 (091e20e, 2023-11-25, custom)"
   sodipodi:docname="doc-detective-logo.svg"
   xmlns:inkscape="http://www.inkscape.org/namespaces/inkscape"
   xmlns:sodipodi="http://sodipodi.sourceforge.net/DTD/sodipodi-0.dtd"
   xmlns="http://www.w3.org/2000/svg"
   xmlns:svg="http://www.w3.org/2000/svg"><sodipodi:namedview
     id="namedview1"
     pagecolor="#ffffff"
     bordercolor="#999999"
     borderopacity="1"
     inkscape:showpageshadow="2"
     inkscape:pageopacity="0"
     inkscape:pagecheckerboard="0"
     inkscape:deskcolor="#d1d1d1"
     inkscape:document-units="mm"
     inkscape:zoom="1.5839366"
     inkscape:cx="396.79619"
     inkscape:cy="458.35168"
     inkscape:window-width="3840"
     inkscape:window-height="2036"
     inkscape:window-x="-12"
     inkscape:window-y="-12"
     inkscape:window-maximized="1"
     inkscape:current-layer="layer1" /><defs
     id="defs1" /><g
     inkscape:label="Layer 1"
     inkscape:groupmode="layer"
     id="layer1"><text
       xml:space="preserve"
       style="font-size:51.6813px;line-height:0.8;font-family:'Courier New';-inkscape-font-specification:'Courier New';text-align:center;letter-spacing:-3.23008px;text-anchor:middle;fill:#ffffff;stroke-width:0.269173"
       x="91.321915"
       y="117.72735"
       id="text1"><tspan
         sodipodi:role="line"
         style="font-style:normal;font-variant:normal;font-weight:300;font-stretch:normal;line-height:0.8;font-family:'JetBrains Mono';-inkscape-font-specification:'JetBrains Mono Light';text-align:start;letter-spacing:-3.23008px;text-anchor:start;fill:#000000;stroke-width:0.269173"
         x="91.321915"
         y="117.72735"
         id="tspan2">Doc</tspan><tspan
         sodipodi:role="line"
         style="font-style:normal;font-variant:normal;font-weight:300;font-stretch:normal;line-height:0.8;font-family:'JetBrains Mono';-inkscape-font-specification:'JetBrains Mono Light';text-align:start;letter-spacing:-3.23008px;text-anchor:start;fill:#000000;stroke-width:0.269173"
         x="91.321915"
         y="159.48325"
         id="tspan3">Detective</tspan></text><text
       xml:space="preserve"
       style="font-style:normal;font-variant:normal;font-weight:300;font-stretch:normal;font-size:50.8px;line-height:0.8;font-family:'JetBrains Mono';-inkscape-font-specification:'JetBrains Mono Light';text-align:start;letter-spacing:-3.175px;text-anchor:start;fill:#000000;stroke-width:0.264583"
       x="27.060741"
       y="61.638355"
       id="text4"><tspan
         sodipodi:role="line"
         id="tspan4"
         style="stroke-width:0.264583"
         x="27.060741"
         y="61.638355" /></text><g
       style="fill:#000000"
       id="g4"
       transform="matrix(0.1,0,0,0.1,2.9019295,168)"><path
         d="m 220,-80 q -24,0 -42,-18 -18,-18 -18,-42 v -680 q 0,-24 18,-42 18,-18 42,-18 h 361 l 219,219 v 521 q 0,24 -18,42 -18,18 -42,18 z M 551,-634 V -820 H 220 v 680 H 740 V -634 Z M 220,-820 v 186 -186 680 z"
         id="path1" /></g><g
       style="fill:#000000"
       id="g5"
       transform="matrix(0.08538186,0,0,0.08538186,18.483518,177.62521)"><path
         d="M 796,-121 533,-384 q -30,26 -69.96,40.5 Q 423.08,-329 378,-329 269.84,-329 194.92,-404 120,-479 120,-585 q 0,-106 75,-181 75,-75 181.5,-75 106.5,0 181,75 74.5,75 74.5,181.15 0,42.85 -14,82.85 -14,40 -42,75 l 264,262 z M 377,-389 q 81.25,0 138.13,-57.5 Q 572,-504 572,-585 572,-666 515.13,-723.5 458.25,-781 377,-781 294.92,-781 237.46,-723.5 180,-666 180,-585 q 0,81 57.46,138.5 57.46,57.5 139.54,57.5 z"
         id="path1-3" /></g></g></svg>
