<?xml version="1.0" encoding="UTF-8" standalone="no"?>
<svg
   width="30"
   height="30"
   viewBox="0 0 30 30"
   fill="none"
   version="1.1"
   id="svg3"
   sodipodi:docname="github.svg"
   inkscape:version="1.3.2 (091e20e, 2023-11-25, custom)"
   xml:space="preserve"
   xmlns:inkscape="http://www.inkscape.org/namespaces/inkscape"
   xmlns:sodipodi="http://sodipodi.sourceforge.net/DTD/sodipodi-0.dtd"
   xmlns="http://www.w3.org/2000/svg"
   xmlns:svg="http://www.w3.org/2000/svg"><defs
     id="defs3" /><sodipodi:namedview
     id="namedview3"
     pagecolor="#ffffff"
     bordercolor="#999999"
     borderopacity="1"
     inkscape:showpageshadow="2"
     inkscape:pageopacity="0"
     inkscape:pagecheckerboard="0"
     inkscape:deskcolor="#d1d1d1"
     inkscape:zoom="18.910714"
     inkscape:cx="81.699717"
     inkscape:cy="35.11237"
     inkscape:window-width="3840"
     inkscape:window-height="2036"
     inkscape:window-x="-12"
     inkscape:window-y="-12"
     inkscape:window-maximized="1"
     inkscape:current-layer="svg3" /><path
     fill-rule="evenodd"
     clip-rule="evenodd"
     d="m 14.964383,5.1850244 c -5.5291635,0 -9.9989549,4.5027432 -9.9989549,10.0732496 0,4.452803 2.8639495,8.22201 6.8370049,9.556049 0.496735,0.100292 0.678687,-0.216745 0.678687,-0.483431 0,-0.233529 -0.01637,-1.033993 -0.01637,-1.868025 C 9.6832829,23.06337 9.1040661,21.262068 9.1040661,21.262068 8.6570665,20.09463 7.9947545,19.794583 7.9947545,19.794583 c -0.9103729,-0.61708 0.066313,-0.61708 0.066313,-0.61708 1.0098425,0.06672 1.5397333,1.033993 1.5397333,1.033993 0.8937952,1.534208 2.3340582,1.100716 2.9134792,0.833827 0.08268,-0.650443 0.347734,-1.100717 0.629157,-1.350823 -2.218421,-0.233529 -4.5524781,-1.100717 -4.5524781,-4.970006 0,-1.100716 0.3970599,-2.001263 1.0262157,-2.701646 -0.099265,-0.250106 -0.4469996,-1.284304 0.099469,-2.6684886 0,0 0.8442654,-0.2668898 2.7479014,1.0339946 a 9.6133563,9.6133563 0 0 1 2.499841,-0.333613 c 0.844264,0 1.704902,0.116866 2.499637,0.333613 1.903842,-1.3008844 2.748106,-1.0339946 2.748106,-1.0339946 0.54647,1.3841846 0.198531,2.4183826 0.09927,2.6684886 0.645734,0.700383 1.026421,1.60093 1.026421,2.701646 0,3.869289 -2.334059,4.719693 -4.569057,4.970006 0.364313,0.316829 0.678685,0.917126 0.678685,1.867819 0,1.350823 -0.01637,2.434961 -0.01637,2.768369 0,0.26689 0.182156,0.583924 0.678685,0.48384 3.973058,-1.334449 6.837007,-5.103451 6.837007,-9.556254 C 24.963138,9.6877676 20.476977,5.1850244 14.964391,5.1850244 Z"
     fill="#24292f"
     id="path1"
     style="stroke-width:0.20467" /></svg>
