<?xml version="1.0" encoding="UTF-8" standalone="no"?>
<svg
   width="30"
   height="30"
   viewBox="0 0 30 30"
   fill="none"
   version="1.1"
   id="svg3"
   sodipodi:docname="opencollective.svg"
   inkscape:version="1.3.2 (091e20e, 2023-11-25, custom)"
   xmlns:inkscape="http://www.inkscape.org/namespaces/inkscape"
   xmlns:sodipodi="http://sodipodi.sourceforge.net/DTD/sodipodi-0.dtd"
   xmlns="http://www.w3.org/2000/svg"
   xmlns:svg="http://www.w3.org/2000/svg">
  <defs
     id="defs3" />
  <sodipodi:namedview
     id="namedview3"
     pagecolor="#ffffff"
     bordercolor="#999999"
     borderopacity="1"
     inkscape:showpageshadow="2"
     inkscape:pageopacity="0"
     inkscape:pagecheckerboard="0"
     inkscape:deskcolor="#d1d1d1"
     inkscape:zoom="18.910714"
     inkscape:cx="81.699717"
     inkscape:cy="13.96034"
     inkscape:window-width="3840"
     inkscape:window-height="2036"
     inkscape:window-x="-12"
     inkscape:window-y="-12"
     inkscape:window-maximized="1"
     inkscape:current-layer="svg3" />
  <path
     fill-rule="evenodd"
     clip-rule="evenodd"
     d="m 23.036584,9.3483254 c 1.110839,1.6004326 1.761811,3.5437866 1.761811,5.6394296 0,2.095643 -0.650972,4.039223 -1.761811,5.639423 l -2.564846,-2.564846 c 0.503718,-0.911389 0.790375,-1.959635 0.790375,-3.074577 0,-1.114941 -0.286657,-2.162975 -0.790375,-3.074335 z"
     fill="#99cfff"
     id="path2"
     style="stroke-width:0.707271" />
  <path
     fill-rule="evenodd"
     clip-rule="evenodd"
     d="M 20.536028,6.8478544 17.97097,9.4127504 C 17.059581,8.9090397 16.011547,8.6223331 14.896606,8.6223331 c -3.515488,0 -6.3655072,2.8500179 -6.3655072,6.3654929 0,3.515489 2.8500192,6.365507 6.3655072,6.365507 1.114941,0 2.162975,-0.286657 3.074364,-0.790375 l 2.565058,2.564846 c -1.600412,1.110769 -3.543779,1.761811 -5.639422,1.761811 -5.4685604,0 -9.9017907,-4.433244 -9.9017907,-9.901789 0,-5.4685536 4.4332303,-9.901774 9.9017907,-9.901774 2.095643,0 4.03901,0.6510242 5.639422,1.7618024 z"
     fill="#1f87ff"
     id="path3"
     style="stroke-width:0.707271" />
</svg>
