<?xml version="1.0" encoding="UTF-8" standalone="no"?>
<svg
   width="29"
   height="28"
   viewBox="0 0 29 28"
   fill="none"
   version="1.1"
   id="svg3"
   sodipodi:docname="opencollective.svg"
   inkscape:version="1.3.2 (091e20e, 2023-11-25, custom)"
   xmlns:inkscape="http://www.inkscape.org/namespaces/inkscape"
   xmlns:sodipodi="http://sodipodi.sourceforge.net/DTD/sodipodi-0.dtd"
   xmlns="http://www.w3.org/2000/svg"
   xmlns:svg="http://www.w3.org/2000/svg">
  <defs
     id="defs3" />
  <sodipodi:namedview
     id="namedview3"
     pagecolor="#ffffff"
     bordercolor="#999999"
     borderopacity="1"
     inkscape:showpageshadow="2"
     inkscape:pageopacity="0"
     inkscape:pagecheckerboard="0"
     inkscape:deskcolor="#d1d1d1"
     inkscape:zoom="18.910714"
     inkscape:cx="81.673277"
     inkscape:cy="13.96034"
     inkscape:window-width="3840"
     inkscape:window-height="2036"
     inkscape:window-x="-12"
     inkscape:window-y="-12"
     inkscape:window-maximized="1"
     inkscape:current-layer="svg3" />
  <path
     fill-rule="evenodd"
     clip-rule="evenodd"
     d="M 26.009,6.02649 C 27.5796,8.28932 28.5,11.037 28.5,14 c 0,2.963 -0.9204,5.711 -2.491,7.9735 l -3.6264,-3.6264 c 0.7122,-1.2886 1.1175,-2.7707 1.1175,-4.3471 0,-1.5764 -0.4053,-3.0582 -1.1175,-4.34676 z"
     fill="#99cfff"
     id="path2" />
  <path
     fill-rule="evenodd"
     clip-rule="evenodd"
     d="M 22.4735,2.49111 18.8468,6.11758 C 17.5582,5.40539 16.0764,5.00002 14.5,5.00002 c -4.9705,0 -9.0001,4.0296 -9.0001,9.00008 0,4.9705 4.0296,9.0001 9.0001,9.0001 1.5764,0 3.0582,-0.4053 4.3468,-1.1175 l 3.6267,3.6264 c -2.2628,1.5705 -5.0105,2.491 -7.9735,2.491 -7.73192,0 -14,-6.2681 -14,-14 0,-7.73191 6.26808,-13.99997793 14,-13.99997793 2.963,0 5.7107,0.92047393 7.9735,2.49098793 z"
     fill="#1f87ff"
     id="path3" />
</svg>
