<?xml version="1.0" encoding="UTF-8" standalone="no"?>
<svg
   version="1.1"
   id="Layer_1"
   x="0px"
   y="0px"
   viewBox="0 0 30.000001 30"
   xml:space="preserve"
   sodipodi:docname="shirt.svg"
   width="30"
   height="30"
   inkscape:version="1.3.1 (9b9bdc1480, 2023-11-25, custom)"
   xmlns:inkscape="http://www.inkscape.org/namespaces/inkscape"
   xmlns:sodipodi="http://sodipodi.sourceforge.net/DTD/sodipodi-0.dtd"
   xmlns="http://www.w3.org/2000/svg"
   xmlns:svg="http://www.w3.org/2000/svg"><defs
     id="defs1" /><sodipodi:namedview
     id="namedview1"
     pagecolor="#ffffff"
     bordercolor="#000000"
     borderopacity="0.25"
     inkscape:showpageshadow="2"
     inkscape:pageopacity="0.0"
     inkscape:pagecheckerboard="0"
     inkscape:deskcolor="#d1d1d1"
     inkscape:zoom="12.277199"
     inkscape:cx="10.059298"
     inkscape:cy="3.5024275"
     inkscape:window-width="2048"
     inkscape:window-height="1216"
     inkscape:window-x="0"
     inkscape:window-y="0"
     inkscape:window-maximized="1"
     inkscape:current-layer="Layer_1" /><g
     id="g1"
     transform="matrix(0.18724719,0,0,0.18724719,3.4784463,6.5543548)"><path
       d="M 78.36,4.61 H 44.51 c 0.17,1.87 0.64,3.65 1.37,5.3 0.85,1.94 2.06,3.69 3.54,5.17 1.57,1.57 3.44,2.83 5.51,3.69 2,0.83 4.19,1.28 6.5,1.28 2.31,0 4.5,-0.46 6.5,-1.28 2.07,-0.86 3.94,-2.12 5.51,-3.69 1.48,-1.48 2.69,-3.23 3.54,-5.17 0.74,-1.65 1.22,-3.43 1.38,-5.3 z M 9.28,37.06 25.85,37.78 h 0.02 c 0.61,0.03 1.15,0.3 1.54,0.7 0.37,0.38 0.6,0.9 0.64,1.46 0.01,0.04 0.01,0.09 0.01,0.13 V 94.82 H 95.41 V 39.68 c 0,-0.63 0.26,-1.21 0.68,-1.63 v 0 0 0 c 0.42,-0.42 0.99,-0.67 1.62,-0.67 0.01,0 0.02,0 0.09,0 h 0.01 0.07 l 16.26,-0.18 3.78,-17.59 -35,-14.29 c -0.24,2.31 -0.85,4.52 -1.76,6.56 -1.09,2.43 -2.6,4.62 -4.45,6.46 -1.99,1.99 -4.37,3.59 -7.02,4.69 -2.55,1.06 -5.34,1.64 -8.26,1.64 -2.92,0 -5.71,-0.58 -8.26,-1.64 -2.65,-1.1 -5.03,-2.7 -7.02,-4.69 -1.82,-1.82 -3.32,-3.97 -4.4,-6.35 -0.91,-2 -1.52,-4.16 -1.78,-6.43 L 5.01,19.97 Z M 23.45,42.28 7.47,41.58 C 6.95,41.58 6.46,41.41 6.07,41.11 6.05,41.09 6.03,41.08 6.01,41.06 5.64,40.76 5.36,40.34 5.23,39.84 L 0.07,19.16 C 0.06,19.13 0.06,19.11 0.05,19.08 -0.06,18.56 0.02,18.02 0.25,17.57 0.49,17.09 0.9,16.7 1.43,16.48 L 40.83,0.24 c 0.15,-0.08 0.31,-0.13 0.49,-0.18 v 0 C 41.5,0.02 41.68,0 41.86,0 h 0.3 38.56 0.9 c 0.03,0 0.07,0 0.1,0.01 0.12,0 0.23,0.02 0.34,0.04 v 0 0 c 0.14,0.03 0.28,0.07 0.42,0.13 v 0 0 l 38.96,15.9 c 0.02,0.01 0.04,0.02 0.06,0.03 0.48,0.21 0.87,0.58 1.11,1.03 0.24,0.46 0.33,1.01 0.22,1.56 l -4.57,21.27 c -0.01,0.03 -0.01,0.06 -0.02,0.09 -0.12,0.48 -0.4,0.91 -0.78,1.21 -0.39,0.32 -0.89,0.51 -1.43,0.52 l -16,0.17 v 55.18 c 0,0.63 -0.26,1.21 -0.68,1.63 v 0 c -0.42,0.42 -0.99,0.68 -1.63,0.68 H 25.76 c -0.63,0 -1.21,-0.26 -1.63,-0.68 v 0 c -0.42,-0.42 -0.68,-0.99 -0.68,-1.63 z"
       id="path1" /></g><g
     id="g4"
     transform="matrix(0.00659324,0,0,0.00659324,36.222685,12.891209)">
	<path
   fill="#4b9a47"
   d="M 1128.306,1200 H 71.694 C 32.099,1200 0,1167.901 0,1128.306 V 71.694 C 0,32.099 32.099,0 71.694,0 H 1128.306 C 1167.901,0 1200,32.099 1200,71.694 v 1056.612 c 0,39.595 -32.099,71.694 -71.694,71.694 z"
   id="path1-4" />
	<g
   id="g3">
		<path
   fill="#ffffff"
   d="m 251.414,202.411 v 792.621 c 0,30.013 24.331,54.344 54.344,54.344 h 612.917 c 16.716,0 30.268,-13.551 30.268,-30.268 V 420.58 L 677.939,149.577 301.467,152.031 c -27.696,0.18 -50.053,22.683 -50.053,50.38 z"
   id="path2" />
		<path
   d="M 918.676,1078.376 H 305.758 c -45.956,0 -83.344,-37.388 -83.344,-83.344 V 202.411 c 0,-43.487 35.378,-79.097 78.865,-79.38 l 388.594,-2.533 288.069,288.07 v 610.541 c 0,32.679 -26.587,59.267 -59.266,59.267 z M 666.006,178.655 301.657,181.03 c -11.713,0.076 -21.243,9.668 -21.243,21.381 v 792.621 c 0,13.975 11.37,25.344 25.344,25.344 h 612.917 c 0.698,0 1.267,-0.568 1.267,-1.268 V 432.592 Z"
   id="path3" />
	</g>
	<rect
   x="449.52899"
   y="595.82202"
   width="302.67499"
   height="60.076"
   id="rect3" />
	<rect
   x="449.52899"
   y="759.771"
   width="181.605"
   height="60.076"
   id="rect4" />
	<path
   d="m 864.547,919.645 -33.693,0.599 -22.668,-28.276 c 47.751,-52.006 73.916,-119.016 73.916,-190.056 0,-75.146 -29.264,-145.795 -82.4,-198.932 -53.137,-53.137 -123.785,-82.4 -198.932,-82.4 -75.147,0 -145.795,29.264 -198.932,82.4 -53.137,53.136 -82.4,123.785 -82.4,198.932 0,75.147 29.264,145.795 82.4,198.932 53.136,53.137 123.785,82.4 198.932,82.4 72.38,0 140.58,-27.159 192.986,-76.64 l 22.685,24.676 0.425,32.343 c 0,2.932 1.17,5.743 3.249,7.81 l 214.126,212.771 49.529,-52.28 -211.353,-209.096 c -2.093,-2.071 -4.927,-3.217 -7.87,-3.183 z m -263.777,0.599 c -120.389,0 -218.332,-97.943 -218.332,-218.332 0,-120.389 97.944,-218.332 218.332,-218.332 120.388,0 218.332,97.943 218.332,218.332 0,120.389 -97.943,218.332 -218.332,218.332 z"
   id="path4" />
</g></svg>
